<svg width="24" height="24" viewBox="0 0 24 24" fill="none" xmlns="http://www.w3.org/2000/svg">
<path d="M20 3H4C2.897 3 2 3.897 2 5V15C2 16.103 2.897 17 4 17H7V22.081L13.351 17H20C21.103 17 22 16.103 22 15V5C22 3.897 21.103 3 20 3ZM20 15H12.649L9 17.919V15H4V5H20V15Z" fill="#F2F5F7"/>
<path d="M20 15H12.649L9 17.919V15H4V5H20V15Z" fill="#F2F5F7"/>
<path d="M20 3H4C2.897 3 2 3.897 2 5V15C2 16.103 2.897 17 4 17H7V22.081L13.351 17H20C21.103 17 22 16.103 22 15V5C22 3.897 21.103 3 20 3ZM20 15H12.649L9 17.919V15H4V5H20V15Z" fill="#6B98F2"/>
</svg>
