<svg width="20" height="19" viewBox="0 0 20 19" fill="none" xmlns="http://www.w3.org/2000/svg">
<path d="M14.712 10.288C14.321 9.89699 13.689 9.89699 13.298 10.288L11.701 11.884C10.877 11.639 9.535 11.113 8.711 10.288C7.837 9.41399 7.337 8.03499 7.117 7.29599L8.711 5.70199C9.102 5.31099 9.102 4.67899 8.711 4.28799L4.711 0.287994C4.336 -0.0870056 3.672 -0.0870056 3.297 0.287994L0.587997 2.99799C0.205997 3.37799 -0.00900299 3.90199 -2.98902e-06 4.43499C0.021997 5.85799 0.395997 10.802 4.297 14.703C8.195 18.6 13.142 18.977 14.566 19C14.571 19 14.589 19 14.594 19C15.122 19 15.621 18.792 15.999 18.414L18.711 15.702C19.102 15.311 19.102 14.679 18.711 14.288L14.712 10.288ZM14.585 17C13.337 16.979 9.067 16.644 5.711 13.288C2.343 9.91999 2.019 5.63599 2 4.41399L4.004 2.40899L6.59 4.99499L5.297 6.28799C5.059 6.52599 4.957 6.86999 5.026 7.19999C5.05 7.31499 5.637 10.042 7.297 11.702C8.957 13.362 11.684 13.949 11.799 13.973C12.13 14.044 12.472 13.941 12.711 13.702L14.004 12.409L16.59 14.995L14.585 17Z" fill="#819ABF"/>
</svg>
